<?xml version="1.0" encoding="UTF-8" standalone="no"?>
<svg
   xmlns:dc="http://purl.org/dc/elements/1.1/"
   xmlns:cc="http://creativecommons.org/ns#"
   xmlns:rdf="http://www.w3.org/1999/02/22-rdf-syntax-ns#"
   xmlns:svg="http://www.w3.org/2000/svg"
   xmlns="http://www.w3.org/2000/svg"
   xmlns:sodipodi="http://sodipodi.sourceforge.net/DTD/sodipodi-0.dtd"
   xmlns:inkscape="http://www.inkscape.org/namespaces/inkscape"
   inkscape:export-ydpi="1034.1727"
   inkscape:export-xdpi="1034.1727"
   inkscape:export-filename="Bonsai.png"
   sodipodi:docname="logo.svg"
   inkscape:version="1.0 (4035a4fb49, 2020-05-01)"
   version="1.1"
   id="svg2985"
   height="170"
   width="170">
  <defs
     id="defs2987" />
  <sodipodi:namedview
     inkscape:document-rotation="0"
     inkscape:guide-bbox="true"
     showguides="true"
     units="px"
     inkscape:window-maximized="1"
     inkscape:window-y="-9"
     inkscape:window-x="-9"
     inkscape:window-height="1001"
     inkscape:window-width="1920"
     showgrid="false"
     inkscape:current-layer="layer2"
     inkscape:document-units="mm"
     inkscape:cy="66.843896"
     inkscape:cx="138.29455"
     inkscape:zoom="4"
     inkscape:pageshadow="2"
     inkscape:pageopacity="0"
     borderopacity="1.0"
     bordercolor="#666666"
     pagecolor="#474747"
     id="base">
    <sodipodi:guide
       inkscape:color="rgb(0,0,255)"
       inkscape:label=""
       inkscape:locked="false"
       id="guide4444"
       position="-63.769531,15"
       orientation="0,1" />
    <sodipodi:guide
       inkscape:color="rgb(0,0,255)"
       inkscape:label=""
       inkscape:locked="false"
       id="guide4446"
       position="15,45.727539"
       orientation="1,0" />
  </sodipodi:namedview>
  <metadata
     id="metadata2990">
    <rdf:RDF>
      <cc:Work
         rdf:about="">
        <dc:format>image/svg+xml</dc:format>
        <dc:type
           rdf:resource="http://purl.org/dc/dcmitype/StillImage" />
        <dc:title />
      </cc:Work>
    </rdf:RDF>
  </metadata>
  <g
     inkscape:label="Layer 1"
     id="layer2"
     inkscape:groupmode="layer">
    <circle
       r="85"
       cy="84.625"
       cx="85.25"
       id="path1437"
       style="opacity:1;fill:#ec2227;fill-opacity:1;stroke:none;stroke-width:21.3031" />
    <g
       transform="matrix(2.8333333,0,0,2.8333333,-1.166667,1.22728)"
       id="g853">
      <path
         style="fill:#ffffff;stroke-width:0.34301;fill-opacity:1"
         d="m 25.023438,6.273433 c -3.264082,0 -5.98689,2.32305 -6.601563,5.40625 -0.501823,-0.2772 -1.080429,-0.42845 -1.699219,-0.40625 -1.671486,0.0612 -3.05329,1.415938 -3.144531,3.085938 -0.102903,1.889399 1.398623,3.453125 3.265625,3.453125 1.01085,0 1.915701,-0.459088 2.515625,-1.179688 0.748451,1.165 1.845209,2.087682 3.144531,2.613282 -0.0021,0.0436 -0.0039,0.08491 -0.0039,0.128906 -0.911376,-0.5742 -1.991802,-0.90625 -3.148438,-0.90625 -3.265451,0 -5.910156,2.645156 -5.910156,5.910156 0,0.0598 0.0022,0.120888 0.0039,0.179688 -0.570425,-0.1564 -1.186563,-0.208294 -1.824218,-0.121094 -2.140038,0.2932 -3.790599,2.103918 -3.894532,4.261718 -0.04665,0.9728 0.212222,1.883226 0.691407,2.640626 -0.725809,0.4738 -1.186819,1.315118 -1.117188,2.261718 0.0909,1.2294 1.108439,2.221756 2.339844,2.285156 1.41663,0.0728 2.590166,-1.0419 2.609375,-2.4375 0.60061,-4e-4 1.171194,-0.11943 1.695312,-0.33203 1.202592,-0.3252 4.004058,-0.90592 6.625,-0.13672 2.25323,0.6614 3.9951,2.93867 4.027344,2.98047 0.9594,2.008 3.970952,3.338812 4.09375,4.632812 0.377996,3.9898 -8.561222,5.357362 -13.617187,6.726562 8.922155,7.4866 21.929407,7.33035 30.851563,-0.15625 0,0 -10.012084,-1.318724 -12.035158,-6.953124 -1.522962,-4.2418 -5.251904,-4.685244 -5.265624,-6.214844 -0.02161,-2.385 3.990126,-2.4412 4.0625,-5.375 0.0096,-0.3888 -0.03658,-0.737076 -0.117188,-1.046876 1.283542,-0.1098 2.458096,-0.597362 3.414064,-1.351562 0.01097,0.0224 0.02418,0.04401 0.03516,0.06641 -0.763196,0.5786 -1.213102,1.548682 -1.04297,2.613282 0.186256,1.1648 1.136054,2.087894 2.304688,2.246094 1.154226,0.156 2.187084,-0.414208 2.71875,-1.316406 0.775202,0.2832 1.61498,0.4375 2.488282,0.4375 3.526482,0 6.462116,-2.51747 7.109374,-5.85547 1.62175,-0.257 2.840006,-1.734138 2.683594,-3.460938 -0.135832,-1.499 -1.33973,-2.720612 -2.835938,-2.882812 -0.533036,-0.0576 -1.041054,0.01891 -1.5,0.195312 -1.328134,-1.5212 -3.278918,-2.484374 -5.45703,-2.484374 -1.950694,0 -3.72103,0.773744 -5.023438,2.027344 C 36.617272,16.447194 35.27461,15.4266 33.687504,15 c 0.918238,-0.4638 1.550914,-1.413519 1.554688,-2.511719 0.0051,-1.4866 -1.104138,-2.701019 -2.585938,-2.824219 -0.585862,-0.049 -1.135544,0.08315 -1.605468,0.34375 -1.10209,-2.2144 -3.385828,-3.734375 -6.027344,-3.734375 z m 4.347656,21.300781 c 0.04973,0.2016 0.08203,0.416438 0.08203,0.648438 0,1.2182 -3.152638,2.337438 -4.51953,4.523438 -0.867472,-0.7034 -1.903362,-1.37742 -2.96875,-1.69922 -1.86323,-0.5634 -4.286633,-0.355368 -5.636719,-0.167968 0.180423,-0.3766 0.312153,-0.785338 0.382813,-1.210938 0.795782,0.3988 1.690145,0.625 2.640624,0.625 1.918458,0 3.622986,-0.911924 4.703126,-2.328124 0.691506,0.451 1.51532,0.710936 2.402344,0.710936 1.117182,0 2.137486,-0.416362 2.914062,-1.101562 z"
         id="path1082"
         inkscape:connector-curvature="0" />
    </g>
  </g>
</svg>
