<?xml version="1.0" standalone="yes"?><!DOCTYPE svg PUBLIC "-//W3C//DTD SVG 1.1//EN" "http://www.w3.org/Graphics/SVG/1.1/DTD/svg11.dtd"[
<!ENTITY E11 'stroke:none;opacity:1;fill:rgb(68,154,223);'><!ENTITY E16 'matrix(1.25 0.00 0.00 1.25 205.00 5.00 ) '><!ENTITY E9 'matrix(1.00 0.00 0.00 1.00 0.00 0.00 ) '><!ENTITY E7 'stroke:none;fill-rule:evenodd;opacity:1;fill:rgb(255,255,255);'><!ENTITY E3 'stroke:rgb(169,169,169);fill:none;stroke-linecap:butt;stroke-miterlimit:9;opacity:1;stroke-width:2;stroke-linejoin:miter;'><!ENTITY E13 'stroke:rgb(255,255,255);fill:none;stroke-linecap:butt;stroke-miterlimit:9;opacity:1;stroke-width:2;stroke-linejoin:miter;'><!ENTITY E12 'M 16.849 10.062 23.4027 10.062 M 16.6038 19.6084 23.3505 19.6084 M 12.3075 17.1615 7.5719 21.8971 M 7.577335 17.152 12.31704 21.8917 M 6.564136 10.0047 13.30904 10.0047 M 9.936636 6.6288 9.936636 13.3806 '><!ENTITY E14 'stroke:none;opacity:1;fill:rgb(255,255,255);'><!ENTITY E21 'matrix(1.25 0.00 0.00 1.25 105.00 5.00 ) '><!ENTITY E4 'matrix(1.25 0.00 0.00 1.25 405.00 5.00 ) '><!ENTITY E10 'matrix(1.25 0.00 0.00 1.25 305.00 5.00 ) '><!ENTITY E1 'stroke:rgb(169,169,169);fill:none;stroke-linecap:butt;stroke-miterlimit:9;opacity:1;stroke-width:1.25;stroke-linejoin:miter;'><!ENTITY E24 'matrix(1.25 0.00 0.00 1.25 5.00 5.00 ) '>
]><svg width="488.2151" height="81.42773" id="SvgGdi_output" xmlns="http://www.w3.org/2000/svg"><rect id="background" height="100.00%" style="fill:rgb(255,255,255);" width="100.00%" y="0.00" x="0.00" /><g style="shape-rendering:auto;" id="root_group"><line y1="23.75" style="&E1;" id="54" x2="400.00" y2="23.75" x1="347.50" /><line y1="23.75" style="&E1;" id="55" x2="300.00" y2="23.75" x1="247.50" /><line y1="23.75" style="&E1;" id="56" x2="200.00" y2="23.75" x1="147.50" /><line y1="23.75" style="&E1;" id="57" x2="100.00" y2="23.75" x1="47.50" /><path style="&E3;" transform="&E4;" id="58" d="M 10.158 33.2 C 3.4054 31.7591 -1.861 26.4692 -3.271 19.71 " /><ellipse id="59" cy="15.00" cx="15.00" transform="&E4;" rx="15.00" ry="15.00" style="stroke:none;opacity:1;fill:rgb(155,91,179);" /><path style="&E7;" transform="&E4;" id="60" d="M 11.529 25.444 20.7834 12.908 16.3203 12.908 18.355 4.7687 9.100601 17.3047 13.5637 17.3047 z " /><text id="61" transform="&E9;" x="405.00" y="48.75" style="stroke:none;clip-path:url(#63_text_clipper);font-family:Microsoft Sans Serif;fill:rgb(0,0,0);font-size:9.75pt;opacity:1;"><tspan dy="9.75pt" id="65">DigitalOutput</tspan></text><ellipse id="67" cy="15.00" cx="15.00" transform="&E10;" rx="15.00" ry="15.00" style="&E11;" /><path d="&E12;" style="&E13;" transform="&E10;" id="68" /><ellipse id="69" cy="16.33" cx="19.93" transform="&E10;" rx="1.30" ry="1.30" style="&E14;" /><ellipse id="70" cy="22.83" cx="19.93" transform="&E10;" rx="1.30" ry="1.30" style="&E14;" /><text id="71" transform="&E9;" x="305.00" y="48.75" style="stroke:none;clip-path:url(#73_text_clipper);font-family:Microsoft Sans Serif;fill:rgb(0,0,0);font-size:9.75pt;opacity:1;"><tspan dy="9.75pt" id="75">GreaterThan</tspan></text><ellipse id="77" cy="15.00" cx="15.00" transform="&E16;" rx="15.00" ry="15.00" style="&E11;" /><path style="&E7;" transform="&E16;" id="78" d="M 19.156 13.888 19.156 10.3647 19.156 6.841399 25.2585 10.3647 22.2072 12.1264 z " /><path style="&E7;" transform="&E16;" id="79" d="M 19.156 22.97 19.156 19.4467 19.156 15.9234 25.2585 19.4467 22.2072 21.2084 z " /><path style="&E13;" transform="&E16;" id="80" d="M 5.5001 19.484 10.6493 19.484 16.2743 10.2485 19.3728 10.2485 M 14.6769 17.1481 16.3089 19.4828 19.2202 19.4828 M 5.500199 10.2437 10.7586 10.2437 12.1652 12.8707 " /><text id="81" transform="&E9;" x="205.00" y="48.75" style="stroke:none;clip-path:url(#83_text_clipper);font-family:Microsoft Sans Serif;fill:rgb(0,0,0);font-size:9.75pt;opacity:1;"><tspan dy="9.75pt" id="85">Val0</tspan></text><ellipse id="87" cy="15.00" cx="15.00" transform="&E21;" rx="15.00" ry="15.00" style="&E11;" /><path d="&E12;" style="&E13;" transform="&E21;" id="88" /><ellipse id="89" cy="16.33" cx="19.93" transform="&E21;" rx="1.30" ry="1.30" style="&E14;" /><ellipse id="90" cy="22.83" cx="19.93" transform="&E21;" rx="1.30" ry="1.30" style="&E14;" /><text id="91" transform="&E9;" x="105.00" y="48.75" style="stroke:none;clip-path:url(#93_text_clipper);font-family:Microsoft Sans Serif;fill:rgb(0,0,0);font-size:9.75pt;opacity:1;"><tspan dy="9.75pt" id="95">Index</tspan></text><path style="&E3;" transform="&E24;" id="97" d="M 31.179 5.2 C 34.9985 11.0918 34.9814 18.682 31.13552 24.557 " /><ellipse id="98" cy="15.00" cx="15.00" transform="&E24;" rx="15.00" ry="15.00" style="stroke:none;opacity:1;fill:rgb(91,178,126);" /><path style="&E13;" transform="&E24;" id="99" d="M 20.824 23.115 20.824 7.098999 M 17.3572 17.48 17.3572 12.7339 M 13.8904 21.2046 13.8904 9.009602 M 10.4236 18.6248 10.4236 11.5896 M 6.9568 16.3923 6.9568 13.822 " /><ellipse id="100" cy="23.75" cx="5.00" rx="3.75" ry="3.75" style="stroke:rgb(169,169,169);fill:none;stroke-linecap:butt;stroke-miterlimit:9;opacity:1;stroke-width:2.5;stroke-linejoin:miter;" /><ellipse id="101" cy="23.75" cx="5.00" rx="3.75" ry="3.75" style="&E14;" /><text id="102" transform="&E9;" x="5.00" y="48.75" style="stroke:none;clip-path:url(#104_text_clipper);font-family:Microsoft Sans Serif;fill:rgb(0,0,0);font-size:9.75pt;opacity:1;"><tspan dy="9.75pt" id="106">Function</tspan></text><text id="108" transform="&E9;" x="5.00" y="63.46" style="stroke:none;clip-path:url(#110_text_clipper);font-family:Microsoft Sans Serif;fill:rgb(0,0,0);font-size:9.75pt;opacity:1;"><tspan dy="9.75pt" id="112">Generator</tspan></text></g><defs id="clips_hatches_and_gradients"><clipPath id="63_text_clipper"><rect x="405.00" y="48.75" width="81.97" height="16.34" id="64" /></clipPath><clipPath id="73_text_clipper"><rect x="305.00" y="48.75" width="80.24" height="16.34" id="74" /></clipPath><clipPath id="83_text_clipper"><rect x="205.00" y="48.75" width="31.21" height="16.34" id="84" /></clipPath><clipPath id="93_text_clipper"><rect x="105.00" y="48.75" width="37.09" height="16.34" id="94" /></clipPath><clipPath id="104_text_clipper"><rect x="5.00" y="48.75" width="64.61" height="32.68" id="105" /></clipPath><clipPath id="110_text_clipper"><rect x="5.00" y="63.46" width="64.61" height="32.68" id="111" /></clipPath></defs></svg>